Dr. Constance Petersen (Ingrid Bergman) is a psychiatrist with a firm understanding of human nature—or so she thinks. When the mysterious Dr. Anthony Edwardes (Gregory Peck) becomes the new chief of staff at her institution, the bookish and detached Constance plummets into a whirlwind of tangled identities and feverish psychoanalysis, where the greatest risk is to fall in love. A transcendent love story replete with taut excitement and startling imagery, Spellbound is classic Hitchcock, featuring stunning performances, an Academy Award-winning score by Miklos Rozsa, and a captivating dream sequence by Surrealist icon Salvador Dali.

   General
      Complete name : Spellbound.1945.720p.BluRay.X264-AMIABLE.mkv
      Format : Matroska
      File size : 5.47 GiB
      Duration : 1h 58mn
      Overall bit rate : 6 622 Kbps
      Writing application : x264.exe
      Writing library : mkv2rls v1.4 (date: 2011 mar 29)
   Video #1
      ID : 1
      Format : AVC
      Format/Info : Advanced Video Codec
      Format profile : High@L4.1
      Format settings, CABAC : Yes
      Format settings, ReFrames : 5 frames
      Muxing mode : Container profile=Unknown@4.1
      Codec ID : V_MPEG4/ISO/AVC
      Duration : 1h 58mn
      Bit rate : 4 981 Kbps
      Nominal bit rate : 5 111 Kbps
      Width : 992 pixels
      Height : 720 pixels
      Display aspect ratio : 1.378
      Frame rate : 23.976 fps
      Resolution : 24 bits
      Colorimetry : 4:2:0
      Scan type : Progressive
      Bits/(Pixel*Frame) : 0.291
      Stream size : 4.11 GiB (75%)
      Writing library : x264 core 120 r2120 0c7dab9
   Audio #2
      ID : 2
      Format : DTS
      Format/Info : Digital Theater Systems
      Codec ID : A_DTS
      Duration : 1h 58mn
      Bit rate mode : Constant
      Bit rate : 1 510 Kbps
      Channel(s) : 2 channels
      Channel positions : L R
      Sampling rate : 48.0 KHz
      Resolution : 24 bits
      Stream size : 1.25 GiB (23%)
      Language : English
   Text #3
      ID : 3
      Format : UTF-8
      Codec ID : S_TEXT/UTF8
      Codec ID/Info : UTF-8 Plain Text
      Language : English

 
http://www.imdb.com/title/tt0038109/

Language: English
Subtitles: English (in mkv); English, Spanish, Portuguese (srt)

